:SAMPLES-PER-SECOND 30
:FULLY-SPECIFIED
:DEGREES
74
root  34.90191482 36.5110142 -14.91784824 8.74859333 -1.725924492 3.288214207
lowerback  -8.490130424 0.2587609291 -0.04223848507
upperback  -3.494179964 0.7932800055 -3.385509968
thorax  1.189530015 0.5412489772 -3.399389982
lowerneck  -14.74160004 -0.1098119989 -0.2129410058
upperneck  15.59350014 -1.615190029 6.413640022
head  7.278860092 -0.3291620314 1.943019986
lclavicle  0 -4.497500157e-015 -2.743230041e-014
lhumerus  -45.24409866 26.61899948 68.74069977
lradius  -0.009002206847 -6.507048965e-006 30.13019753
lwrist  4.824992743e-007 -3.790274832e-007 -26.49580002
lhand  -4.415889985e-031 -36.90420151 -10.68029976
lfingers  90 7.125020027 -90
lthumb  94.81915335 -25.51588605 101.0739958
rclavicle  0 -4.497500157e-015 -2.743230041e-014
rhumerus  -35.51060104 10.11989975 -84.10639954
rradius  -5.16745672e-007 2.214343908e-008 86.46440125
rwrist  -3.062178075e-005 0.0201234445 -174.6210022
rhand  -1.76701974e-031 2.327069998 -7.994709969
rfingers  -90 -7.125020027 -90
rthumb  -85.75183725 -7.991852792 -61.88580688
rfemur  -12.38306332 15.45429611 13.49498749
rtibia  -1.20168066 0.01877919771 21.28496742
rfoot  -0.4110144675 -20.29817963 -38.37202454
rtoes  4.163994598 19.57911119 -102.2572719
lfemur  -9.162714005 -17.7853756 -19.25912666
ltibia  1.866621256 -0.02341397665 15.56135654
lfoot  0.6019004583 -25.8044548 35.93738937
ltoes  -8.567530048 -18.14029234 -115.8218057
75
root  34.9031193 36.5114978 -14.91357097 8.761476517 -1.739654303 3.290058851
lowerback  -8.466520309 0.2815319896 -0.0127000222
upperback  -3.51651001 0.8239219785 -3.416500092
thorax  1.155910015 0.5571249723 -3.445800066
lowerneck  -14.69970036 -0.0635657981 -0.07080490142
upperneck  15.57719994 -1.584079981 6.401400089
head  7.263024807 -0.3093432188 1.919478178
lclavicle  0 -4.497500157e-015 -2.743230041e-014
lhumerus  -45.21519852 26.52519989 68.74140167
lradius  -0.009002206847 -6.507048965e-006 30.11660004
lwrist  4.824992743e-007 -3.790274832e-007 -26.53030014
lhand  -4.415334415e-031 -36.89459991 -10.69569969
lfingers  90 7.125020027 -90
lthumb  94.81795781 -25.53138087 101.0651898
rclavicle  0 -4.497500157e-015 -2.743230041e-014
rhumerus  -34.56700134 11.07660007 -83.91670227
rradius  -5.16745672e-007 2.214343908e-008 87.38690186
rwrist  -3.062178075e-005 0.02006356604 -175.4109955
rhand  -1.766973208e-031 2.28963995 -7.897699833
rfingers  -90 -7.125020027 -90
rthumb  -85.71348002 -8.074961342 -61.91569796
rfemur  -12.39307785 15.4900713 13.47858524
rtibia  -1.193122149 0.009300098754 21.28324509
rfoot  -0.4201328158 -20.32464027 -38.3933754
rtoes  4.139797998 19.58404893 -102.1850753
lfemur  -9.148367882 -17.76361656 -19.27507973
ltibia  1.88386929 -0.01358925179 15.52892017
lfoot  0.5996755362 -25.80994225 35.92965698
ltoes  -8.547081499 -18.14968136 -115.756144
76
root  34.90551025 36.51289752 -14.90948745 8.791383743 -1.77703166 3.273700714
lowerback  -8.457509995 0.2946690619 -0.03839848936
upperback  -3.514260054 0.8438429832 -3.426340103
thorax  1.154340029 0.5673699975 -3.439650059
lowerneck  -14.69050026 -0.0311495997 0.04597999901
upperneck  15.56130028 -1.557860136 6.358779907
head  7.245913982 -0.2932626307 1.895339489
lclavicle  0 -4.497500157e-015 -2.743230041e-014
lhumerus  -45.16910172 26.48699951 68.75849915
lradius  -0.009002206847 -6.507048965e-006 30.10869026
lwrist  4.824992743e-007 -3.790274832e-007 -26.45070076
lhand  -4.418073762e-031 -36.94189835 -10.58399963
lfingers  90 7.125020027 -90
lthumb  94.81628686 -25.42009557 101.1054926
rclavicle  0 -4.497500157e-015 -2.743230041e-014
rhumerus  -33.53960037 11.84399986 -83.75009918
rradius  -5.16745672e-007 2.214343908e-008 88.1832962
rwrist  -3.062178075e-005 0.02000369504 -175.5859985
rhand  -1.767278639e-031 2.525190115 -8.21088028
rfingers  -90 -7.125020027 -90
rthumb  -85.81407826 -7.814535013 -61.70727191
rfemur  -12.41355801 15.49621487 13.47156429
rtibia  -1.174113512 0.01440911554 21.2556324
rfoot  -0.395242095 -20.31409645 -38.34523392
rtoes  4.13326857 19.5853762 -102.1655961
lfemur  -9.189764023 -17.75614738 -19.24504089
ltibia  1.859885931 -0.02373947203 15.5547657
lfoot  0.5979171395 -25.78628731 35.93151093
ltoes  -8.534047592 -18.15565134 -115.7143083
77
root  34.90721335 36.51398486 -14.90463647 8.815227509 -1.791761637 3.256399632
lowerback  -8.449439049 0.3011730313 -0.07102298737
upperback  -3.518850088 0.8552359939 -3.424230099
thorax  1.14546001 0.5734360218 -3.417979956
lowerneck  -14.69620037 -0.01125399955 0.05890709907
upperneck  15.55650043 -1.538629889 6.382269859
head  7.250008583 -0.2822018266 1.898976326
lclavicle  0 -4.497500157e-015 -2.743230041e-014
lhumerus  -45.15390015 26.48250008 68.76860046
lradius  -0.009002206847 -6.507048965e-006 30.11149788
lwrist  4.824992743e-007 -3.790274832e-007 -26.42889977
lhand  -4.41882207e-031 -36.95479965 -10.59980011
lfingers  90 7.125020027 -90
lthumb  94.82563991 -25.43504802 101.1206674
rclavicle  0 -4.497500157e-015 -2.743230041e-014
rhumerus  -32.46860123 12.46710014 -83.57160187
rradius  -5.16745672e-007 2.214343908e-008 88.95729828
rwrist  -3.062178075e-005 0.0199438259 -175.4219971
rhand  -3.535098273e-031 2.716749907 -8.05976963
rfingers  -90 -7.125020027 -90
rthumb  -85.70183371 -7.960304467 -61.51090001
rfemur  -12.41401577 15.4878521 13.47534943
rtibia  -1.155439973 0.02003317513 21.21354294
rfoot  -0.3710956275 -20.30053902 -38.31861877
rtoes  4.135504555 19.58492193 -102.1722665
lfemur  -9.228708267 -17.74624825 -19.21110916
ltibia  1.837838054 -0.01362624113 15.5844698
lfoot  0.5985494852 -25.8129158 35.93481827
ltoes  -8.548507898 -18.14902733 -115.7607232
